<?xml version="1.0" encoding="UTF-8" standalone="no"?>
<svg width="60px" height="60px" viewBox="0 0 60 60" version="1.1" xmlns="http://www.w3.org/2000/svg" xmlns:xlink="http://www.w3.org/1999/xlink">
    <!-- Generator: Sketch 3.8.1 (29687) - http://www.bohemiancoding.com/sketch -->
    <title>position</title>
    <desc>Created with Sketch.</desc>
    <defs></defs>
    <g id="Page-1" stroke="none" stroke-width="1" fill="none" fill-rule="evenodd">
        <g id="iconfont" transform="translate(-380.000000, -60.000000)" fill="#000000">
            <path d="M409.986352,92.9997157 C405.015259,92.9997157 400.984836,88.9645531 400.984836,83.986352 C400.984836,79.0081509 405.015259,74.9706189 409.986352,74.9706189 C414.957445,74.9706189 418.987868,79.0081509 418.987868,83.986352 C418.987868,88.9645531 414.957445,92.9997157 409.986352,92.9997157 M428.972704,84.9886267 C428.972704,73.9493887 420.47114,65 409.986352,65 C399.501564,65 391,73.9493887 391,84.9886267 C391,89.4953085 392.433513,93.6394655 394.824282,96.9827505 L394.819543,96.9827505 L394.855085,97.0254004 C395.468771,97.8784002 396.139323,98.6816416 396.873851,99.420908 L407.853853,112.450479 L408.394086,113.092598 L410.002938,115 L411.609421,113.094967 L412.073832,112.542887 L423.269453,99.2574164 C424.409156,98.0798029 425.186333,96.9827505 425.186333,96.9827505 L425.148422,96.9827505 C427.536821,93.6394655 428.972704,89.4953085 428.972704,84.9886267" id="pin-icon"></path>
        </g>
    </g>
</svg>