<?xml version="1.0" encoding="UTF-8" standalone="no"?>
<svg width="60px" height="60px" viewBox="0 0 60 60" version="1.1" xmlns="http://www.w3.org/2000/svg" xmlns:xlink="http://www.w3.org/1999/xlink">
    <!-- Generator: Sketch 3.8.1 (29687) - http://www.bohemiancoding.com/sketch -->
    <title>back</title>
    <desc>Created with Sketch.</desc>
    <defs></defs>
    <g id="Page-1" stroke="none" stroke-width="1" fill="none" fill-rule="evenodd">
        <g id="iconfont" transform="translate(-60.000000, -60.000000)" fill="#000000">
            <path d="M87,74 C87.552,74 88.024,74.1950667 88.414,74.5832095 C88.804,74.9713524 89,75.4411048 89,75.9904762 C89,76.5498 88.802,77.0215429 88.406,77.4057048 L77.828,87.9333333 L107,87.9333333 C107.552,87.9333333 108.024,88.1284 108.414,88.5165429 C108.804,88.9046857 109,89.3744381 109,89.9238095 C109,90.473181 108.804,90.9429333 108.414,91.3310762 C108.024,91.719219 107.552,91.9142857 107,91.9142857 L77.828,91.9142857 L88.406,102.441914 C88.802,102.826076 89,103.297819 89,103.857143 C89,104.406514 88.804,104.876267 88.414,105.26441 C88.024,105.652552 87.552,105.847619 87,105.847619 C86.438,105.847619 85.964,105.656533 85.578,105.272371 L71.578,91.3390381 C71.192,90.9349714 71,90.4632286 71,89.9238095 C71,89.3843905 71.192,88.9126476 71.578,88.508581 L85.578,74.5752476 C85.974,74.1910857 86.448,74 87,74" id="返回icon"></path>
        </g>
    </g>
</svg>