<?xml version="1.0" encoding="UTF-8" standalone="no"?>
<svg width="60px" height="60px" viewBox="0 0 60 60" version="1.1" xmlns="http://www.w3.org/2000/svg" xmlns:xlink="http://www.w3.org/1999/xlink">
    <!-- Generator: Sketch 3.8.1 (29687) - http://www.bohemiancoding.com/sketch -->
    <title>user2</title>
    <desc>Created with Sketch.</desc>
    <defs></defs>
    <g id="Page-1" stroke="none" stroke-width="1" fill="none" fill-rule="evenodd">
        <g id="iconfont" transform="translate(-140.000000, -60.000000)" fill="#000000">
            <g id="我的图片icon" transform="translate(150.000000, 70.000000)">
                <path d="M36.3636364,24.7018182 L36.3636364,29.8436364 L36.3636364,34.5454545 C36.3636364,35.0472727 36.1854545,35.4763636 35.8309091,35.8309091 C35.5454545,36.1163636 35.2,36.2563636 34.8181818,36.3109091 L34.8181818,33.9581818 C34.8181818,28.3018182 25.0054545,25.8545455 20,25.8545455 C14.9927273,25.8545455 5.18181818,28.3018182 5.18181818,33.9581818 L5.18181818,36.3109091 C4.8,36.2563636 4.45454545,36.1163636 4.16909091,35.8309091 C3.81454545,35.4763636 3.63636364,35.0472727 3.63636364,34.5454545 L3.63636364,5.45454545 C3.63636364,4.95272727 3.81454545,4.52363636 4.16909091,4.16909091 C4.52363636,3.81454545 4.95272727,3.63636364 5.45454545,3.63636364 L34.5454545,3.63636364 C35.0472727,3.63636364 35.4763636,3.81454545 35.8309091,4.16909091 C36.1854545,4.52363636 36.3636364,4.95272727 36.3636364,5.45454545 L36.3636364,24.7018182 Z M8.49818182,36.2381818 L8.49818182,33.9127273 L8.50545455,33.9127273 C8.50545455,31.1509091 15.46,28.9127273 19.9981818,28.9127273 C24.5381818,28.9127273 31.4945455,31.1509091 31.4945455,33.9127273 L31.4945455,36.2381818 L11.9363636,36.2381818 L8.49818182,36.2381818 Z M38.4018182,1.59818182 C37.3363636,0.532727273 36.0509091,0 34.5454545,0 L5.45454545,0 C3.94909091,0 2.66363636,0.532727273 1.59818182,1.59818182 C0.532727273,2.66363636 0,3.94909091 0,5.45454545 L0,34.5454545 C0,36.0509091 0.532727273,37.3363636 1.59818182,38.4018182 C2.66363636,39.4672727 3.94909091,40 5.45454545,40 L34.5454545,40 C36.0509091,40 37.3363636,39.4672727 38.4018182,38.4018182 C39.4672727,37.3363636 40,36.0509091 40,34.5454545 L40,5.45454545 C40,3.94909091 39.4672727,2.66363636 38.4018182,1.59818182 L38.4018182,1.59818182 Z" id="Fill-1"></path>
                <path d="M19.9987273,21.9298182 C16.9296364,21.9298182 14.4314545,19.4316364 14.4314545,16.3607273 C14.4314545,13.2898182 16.9296364,10.7934545 19.9987273,10.7934545 C23.0678182,10.7934545 25.566,13.2898182 25.566,16.3607273 C25.566,19.4316364 23.0678182,21.9298182 19.9987273,21.9298182 M19.9987273,7.63709091 C15.1878182,7.63709091 11.2750909,11.5498182 11.2750909,16.3607273 C11.2750909,21.1716364 15.1878182,25.0861818 19.9987273,25.0861818 C24.8096364,25.0861818 28.7223636,21.1716364 28.7223636,16.3607273 C28.7223636,11.5498182 24.8096364,7.63709091 19.9987273,7.63709091" id="Fill-3"></path>
            </g>
        </g>
    </g>
</svg>