<?xml version="1.0" encoding="UTF-8" standalone="no"?>
<svg width="60px" height="60px" viewBox="0 0 60 60" version="1.1" xmlns="http://www.w3.org/2000/svg" xmlns:xlink="http://www.w3.org/1999/xlink">
    <!-- Generator: Sketch 3.8.1 (29687) - http://www.bohemiancoding.com/sketch -->
    <title>camera</title>
    <desc>Created with Sketch.</desc>
    <defs></defs>
    <g id="Page-1" stroke="none" stroke-width="1" fill="none" fill-rule="evenodd">
        <g id="iconfont" transform="translate(-780.000000, -60.000000)" fill="#000000">
            <path d="M818.345332,81.6666663 L814.946266,76.4666665 L804.723066,76.4666665 L801.2564,81.6666663 L794.201733,81.6666663 C793.723333,81.6666663 793.314267,81.8382663 792.976267,82.1814663 C792.638267,82.5246663 792.4684,82.9406663 792.4684,83.427733 L792.4684,102.466666 C792.4684,102.945066 792.638267,103.354132 792.976267,103.692132 C793.314267,104.030132 793.723333,104.199999 794.201733,104.199999 L825.401732,104.199999 C825.888799,104.199999 826.299599,104.035332 826.634132,103.705999 C826.968665,103.376666 827.135065,102.972799 827.135065,102.494399 L827.135065,83.4554663 C827.135065,82.9683996 826.963465,82.5471996 826.620265,82.195333 C826.277065,81.8434663 825.871465,81.6666663 825.401732,81.6666663 L818.347066,81.6666663 L818.345332,81.6666663 Z M809.799999,86.8666662 C808.364799,86.8666662 807.139333,87.3745328 806.123599,88.3902661 C805.107866,89.4059994 804.599999,90.631466 804.599999,92.066666 C804.599999,93.5018659 805.107866,94.7273325 806.123599,95.7430658 C807.139333,96.7587991 808.364799,97.2666658 809.799999,97.2666658 C811.235199,97.2666658 812.460666,96.7587991 813.476399,95.7430658 C814.492132,94.7273325 814.999999,93.5018659 814.999999,92.066666 C814.999999,90.631466 814.492132,89.4059994 813.476399,88.3902661 C812.460666,87.3745328 811.235199,86.8666662 809.799999,86.8666662 L809.799999,86.8666662 Z M809.799999,83.3999996 C810.973466,83.3999996 812.094932,83.6305329 813.164399,84.0898663 C814.233866,84.5491996 815.154266,85.1662662 815.927332,85.9375995 C816.700399,86.7089328 817.315732,87.6310661 817.775066,88.7005328 C818.234399,89.7699994 818.463199,90.891466 818.464932,92.0649326 C818.466666,93.2383993 818.236132,94.3598659 817.775066,95.4293325 C817.313999,96.4987991 816.698666,97.4209324 815.927332,98.1922657 C815.155999,98.963599 814.235599,99.5806657 813.164399,100.039999 C812.093199,100.499332 810.971733,100.729866 809.799999,100.729866 C808.628266,100.729866 807.506799,100.499332 806.435599,100.039999 C805.364399,99.5806657 804.443999,98.963599 803.672666,98.1922657 C802.901333,97.4209324 802.286,96.4987991 801.824933,95.4293325 C801.363866,94.3598659 801.133333,93.2383993 801.135066,92.0649326 C801.1368,90.891466 801.3656,89.7699994 801.824933,88.7005328 C802.284266,87.6310661 802.899599,86.7089328 803.672666,85.9375995 C804.445733,85.1662662 805.366133,84.5491996 806.435599,84.0898663 C807.505066,83.6305329 808.626533,83.3999996 809.799999,83.3999996 L809.799999,83.3999996 Z M802.866666,73 L816.733332,73 L820.199999,78.1999998 L825.399999,78.1999998 C826.835199,78.1999998 828.060665,78.7165331 829.076399,79.7513331 C830.092132,80.786133 830.599998,82.0202663 830.599998,83.4554663 L830.599998,102.494399 C830.599998,103.929599 830.092132,105.149865 829.076399,106.156932 C828.060665,107.163999 826.835199,107.666665 825.399999,107.666665 L794.2,107.666665 C792.7648,107.666665 791.539333,107.158799 790.5236,106.143065 C789.507867,105.127332 789,103.901866 789,102.466666 L789,83.427733 C789,81.992533 789.507867,80.7618664 790.5236,79.7374664 C791.539333,78.7130665 792.7648,78.1999998 794.2,78.1999998 L799.4,78.1999998 L802.866666,73 Z" id="Page-1"></path>
        </g>
    </g>
</svg>