<?xml version="1.0" encoding="UTF-8" standalone="no"?>
<svg width="60px" height="60px" viewBox="0 0 60 60" version="1.1" xmlns="http://www.w3.org/2000/svg" xmlns:xlink="http://www.w3.org/1999/xlink">
    <!-- Generator: Sketch 3.8.1 (29687) - http://www.bohemiancoding.com/sketch -->
    <title>delete</title>
    <desc>Created with Sketch.</desc>
    <defs></defs>
    <g id="Page-1" stroke="none" stroke-width="1" fill="none" fill-rule="evenodd">
        <g id="iconfont" transform="translate(-700.000000, -60.000000)" fill="#000000">
            <path d="M734,73 L726,73 C725.448,73 724.976,73.196 724.586,73.586 C724.196,73.976 724,74.448 724,75 L724,77 L736,77 L736,75 C736,74.448 735.804,73.976 735.414,73.586 C735.024,73.196 734.552,73 734,73 M742,105 L742,81 L718,81 L718,105 C718,105.552 718.196,106.024 718.586,106.414 C718.976,106.804 719.448,107 720,107 L740,107 C740.552,107 741.024,106.804 741.414,106.414 C741.804,106.024 742,105.552 742,105 M726,69 L734,69 C735.656,69 737.07,69.586 738.242,70.758 C739.414,71.93 740,73.344 740,75 L740,77 L748,77 C748.552,77 749.024,77.196 749.414,77.586 C749.804,77.976 750,78.448 750,79 C750,79.552 749.804,80.024 749.414,80.414 C749.024,80.804 748.552,81 748,81 L746,81 L746,105 C746,106.656 745.414,108.07 744.242,109.242 C743.07,110.414 741.656,111 740,111 L720,111 C718.344,111 716.93,110.414 715.758,109.242 C714.586,108.07 714,106.656 714,105 L714,81 L712,81 C711.448,81 710.976,80.804 710.586,80.414 C710.196,80.024 710,79.552 710,79 C710,78.448 710.196,77.976 710.586,77.586 C710.976,77.196 711.448,77 712,77 L720,77 L720,75 C720,73.344 720.586,71.93 721.758,70.758 C722.93,69.586 724.344,69 726,69" id="删除icon"></path>
        </g>
    </g>
</svg>