<?xml version="1.0" encoding="UTF-8" standalone="no"?>
<svg width="60px" height="60px" viewBox="0 0 60 60" version="1.1" xmlns="http://www.w3.org/2000/svg" xmlns:xlink="http://www.w3.org/1999/xlink">
    <!-- Generator: Sketch 3.8.1 (29687) - http://www.bohemiancoding.com/sketch -->
    <title>share</title>
    <desc>Created with Sketch.</desc>
    <defs></defs>
    <g id="Page-1" stroke="none" stroke-width="1" fill="none" fill-rule="evenodd">
        <g id="iconfont" transform="translate(-620.000000, -60.000000)" fill="#000000">
            <path d="M662.221002,107.890019 C660.436341,107.890019 658.989193,106.442871 658.989193,104.65821 C658.989193,102.87586 660.436341,101.428712 662.221002,101.428712 C664.005664,101.428712 665.452812,102.87586 665.452812,104.65821 C665.452812,106.442871 664.005664,107.890019 662.221002,107.890019 M637.778998,93.5664914 C635.994336,93.5664914 634.547188,92.1193435 634.547188,90.3346818 C634.547188,88.5500202 635.994336,87.1028723 637.778998,87.1028723 C639.563659,87.1028723 641.010807,88.5500202 641.010807,90.3346818 C641.010807,92.1193435 639.563659,93.5664914 637.778998,93.5664914 M662.221002,71.5471883 C664.005664,71.5471883 665.452812,72.9943362 665.452812,74.7789979 C665.452812,76.5636595 664.005664,78.0084956 662.221002,78.0084956 C660.436341,78.0084956 658.989193,76.5636595 658.989193,74.7789979 C658.989193,72.9943362 660.436341,71.5471883 662.221002,71.5471883 M662.221002,96.8815234 C659.865341,96.8815234 657.777842,97.9518581 656.3515,99.6070624 L645.051725,93.0186095 C645.36381,92.1794487 645.557996,91.2824944 645.557996,90.3346818 C645.557996,89.3868693 645.36381,88.489915 645.051725,87.6507542 L657.12362,80.6115125 C658.492169,81.8066809 660.260648,82.555684 662.221002,82.555684 C666.516211,82.555684 670,79.0742068 670,74.7789979 C670,70.4837889 666.516211,67 662.221002,67 C657.925793,67 654.442004,70.4837889 654.442004,74.7789979 C654.442004,75.4378431 654.550656,76.0666358 654.703231,76.6769346 L642.215223,83.9565971 C640.955326,83.0804485 639.43189,82.555684 637.778998,82.555684 C633.483789,82.555684 630,86.0394729 630,90.3346818 C630,94.6298908 633.483789,98.1136797 637.778998,98.1136797 C639.43189,98.1136797 640.957637,97.5889152 642.215223,96.7104548 L654.520603,103.886089 C654.495174,104.142692 654.442004,104.394671 654.442004,104.65821 C654.442004,108.95573 657.925793,112.437207 662.221002,112.437207 C666.516211,112.437207 670,108.95573 670,104.65821 C670,100.363001 666.516211,96.8815234 662.221002,96.8815234" id="分享icon"></path>
        </g>
    </g>
</svg>