<?xml version="1.0" encoding="UTF-8" standalone="no"?>
<svg width="60px" height="60px" viewBox="0 0 60 60" version="1.1" xmlns="http://www.w3.org/2000/svg" xmlns:xlink="http://www.w3.org/1999/xlink">
    <!-- Generator: Sketch 3.8.1 (29687) - http://www.bohemiancoding.com/sketch -->
    <title>user</title>
    <desc>Created with Sketch.</desc>
    <defs></defs>
    <g id="Page-1" stroke="none" stroke-width="1" fill="none" fill-rule="evenodd">
        <g id="iconfont" transform="translate(-539.000000, -60.000000)" fill="#000000">
            <path d="M568.99825,73.5 C567.06625,73.5 565.416,74.18425 564.04925,75.551 C562.6825,76.91775 561.99825,78.568 561.99825,80.5 L561.99825,85.75 C561.99825,87.682 562.6825,89.33225 564.04925,90.699 C565.416,92.06575 567.06625,92.75 568.99825,92.75 C570.93025,92.75 572.5805,92.06575 573.94725,90.699 C575.314,89.33225 575.99825,87.682 575.99825,85.75 L575.99825,80.5 C575.99825,78.568 575.314,76.91775 573.94725,75.551 C572.5805,74.18425 570.93025,73.5 568.99825,73.5 L568.99825,73.5 Z M568.99825,96.25 C566.46425,96.25 564.0195,96.453 561.664,96.859 C559.3085,97.265 557.25575,97.832 555.504,98.56175 C554.80225,98.854 554.17575,99.16375 553.6245,99.491 C553.07325,99.81825 552.655,100.11575 552.36625,100.38 C552.0775,100.64425 551.86225,100.87525 551.717,101.07125 C551.57175,101.26725 551.5,101.42475 551.49825,101.54375 L551.49825,105.0035 C551.49825,105.4865 551.66975,105.8995 552.011,106.24075 C552.35225,106.582 552.76525,106.7535 553.24825,106.7535 L584.74825,106.7535 C585.23125,106.7535 585.64425,106.582 585.9855,106.24075 C586.32675,105.8995 586.49825,105.4865 586.49825,105.0035 L586.49825,101.55775 C586.49825,101.43875 586.42475,101.28125 586.2795,101.08525 C586.13425,100.88925 585.91725,100.65825 585.63025,100.394 C585.34325,100.12975 584.92325,99.83225 584.372,99.505 C583.82075,99.17775 583.19425,98.86275 582.4925,98.56175 C580.7425,97.832 578.68975,97.265 576.3325,96.859 C573.97525,96.453 571.5305,96.25 568.99825,96.25 L568.99825,96.25 Z M568.99825,70 C570.904,70 572.661,70.469 574.26925,71.40875 C575.8775,72.3485 577.1515,73.6225 578.09125,75.23075 C579.031,76.839 579.5,78.596 579.5,80.50175 L579.5,85.75175 C579.5,87.2095 579.21825,88.59025 578.653,89.894 C578.08775,91.19775 577.30025,92.33175 576.287,93.29775 C578.94875,93.716 581.313,94.33375 583.38325,95.151 C585.4535,95.96825 587.07225,96.93075 588.243,98.042 C589.41375,99.15325 589.99825,100.324 590,101.556 L590,105.00175 C590,106.45075 589.48725,107.688 588.46175,108.7135 C587.43625,109.739 586.199,110.25175 584.75,110.25175 L553.25,110.25175 C551.801,110.25175 550.56375,109.739 549.53825,108.7135 C548.51275,107.688 548,106.45075 548,105.00175 L548,101.542 C548,100.31175 548.58625,99.13925 549.757,98.028 C550.92775,96.91675 552.5465,95.9525 554.60975,95.137 C556.673,94.3215 559.03725,93.709 561.699,93.29775 C560.69625,92.323 559.91225,91.1855 559.347,89.887 C558.78175,88.5885 558.49825,87.2095 558.5,85.75175 L558.5,80.50175 C558.5,78.596 558.969,76.839 559.90875,75.23075 C560.8485,73.6225 562.1225,72.3485 563.73075,71.40875 C565.339,70.469 567.096,70 569.00175,70 L568.99825,70 Z" id="用户icon"></path>
        </g>
    </g>
</svg>