<?xml version="1.0" encoding="UTF-8" standalone="no"?>
<svg width="60px" height="60px" viewBox="0 0 60 60" version="1.1" xmlns="http://www.w3.org/2000/svg" xmlns:xlink="http://www.w3.org/1999/xlink">
    <!-- Generator: Sketch 3.8.1 (29687) - http://www.bohemiancoding.com/sketch -->
    <title>more</title>
    <desc>Created with Sketch.</desc>
    <defs></defs>
    <g id="Page-1" stroke="none" stroke-width="1" fill="none" fill-rule="evenodd">
        <g id="iconfont" transform="translate(-380.000000, -140.000000)" fill="#000000">
            <g id="更多" transform="translate(391.000000, 165.000000)">
                <path d="M8.22115385,4.75 C8.22115385,6.96861538 6.37961538,8.76923077 4.11057692,8.76923077 C1.84153846,8.76923077 0,6.96861538 0,4.75 C0,2.53138462 1.84153846,0.730769231 4.11057692,0.730769231 C6.37961538,0.730769231 8.22115385,2.53138462 8.22115385,4.75" id="Fill-1"></path>
                <path d="M18.871285,8.76923077 C16.6022465,8.76923077 14.760708,6.96861538 14.760708,4.75 C14.760708,2.53138462 16.6022465,0.730769231 18.871285,0.730769231 C21.1403234,0.730769231 22.9818619,2.53138462 22.9818619,4.75 C22.9818619,6.96861538 21.1403234,8.76923077 18.871285,8.76923077 Z" id="Fill-3"></path>
                <path d="M37.7425699,4.75 C37.7425699,6.96861538 35.9010315,8.76923077 33.631993,8.76923077 C31.3629545,8.76923077 29.5214161,6.96861538 29.5214161,4.75 C29.5214161,2.53138462 31.3629545,0.730769231 33.631993,0.730769231 C35.9010315,0.730769231 37.7425699,2.53138462 37.7425699,4.75" id="Fill-5"></path>
            </g>
        </g>
    </g>
</svg>