<?xml version="1.0" encoding="UTF-8" standalone="no"?>
<svg width="60px" height="60px" viewBox="0 0 60 60" version="1.1" xmlns="http://www.w3.org/2000/svg" xmlns:xlink="http://www.w3.org/1999/xlink">
    <!-- Generator: Sketch 3.8.1 (29687) - http://www.bohemiancoding.com/sketch -->
    <title>close</title>
    <desc>Created with Sketch.</desc>
    <defs></defs>
    <g id="Page-1" stroke="none" stroke-width="1" fill="none" fill-rule="evenodd">
        <g id="iconfont" transform="translate(-60.000000, -140.000000)" fill="#000000">
            <path d="M107.35875,152.64125 C107.78625,153.06875 108,153.60425 108,154.25 C108,154.88225 107.784,155.4155 107.34975,155.84975 L93.1815,170 L107.34975,184.15025 C107.784,184.5845 108,185.11775 108,185.75 C108,186.39575 107.78625,186.93125 107.35875,187.35875 C106.93125,187.78625 106.39575,188 105.75,188 C105.11775,188 104.5845,187.784 104.15025,187.34975 L90,173.1815 L75.84975,187.34975 C75.4155,187.784 74.88225,188 74.25,188 C73.60425,188 73.06875,187.78625 72.64125,187.35875 C72.21375,186.93125 72,186.39575 72,185.75 C72,185.11775 72.216,184.5845 72.65025,184.15025 L86.8185,170 L72.65025,155.84975 C72.216,155.4155 72,154.88225 72,154.25 C72,153.60425 72.21375,153.06875 72.64125,152.64125 C73.06875,152.21375 73.60425,152 74.25,152 C74.88225,152 75.4155,152.216 75.84975,152.65025 L90,166.8185 L104.15025,152.65025 C104.5845,152.216 105.11775,152 105.75,152 C106.39575,152 106.93125,152.21375 107.35875,152.64125 Z" id="å‰icon"></path>
        </g>
    </g>
</svg>