<?xml version="1.0" encoding="UTF-8" standalone="no"?>
<svg width="60px" height="60px" viewBox="0 0 60 60" version="1.1" xmlns="http://www.w3.org/2000/svg" xmlns:xlink="http://www.w3.org/1999/xlink">
    <!-- Generator: Sketch 3.8.1 (29687) - http://www.bohemiancoding.com/sketch -->
    <title>like</title>
    <desc>Created with Sketch.</desc>
    <defs></defs>
    <g id="Page-1" stroke="none" stroke-width="1" fill="none" fill-rule="evenodd">
        <g id="iconfont" transform="translate(-220.000000, -60.000000)" fill="#000000">
            <path d="M257.93318,82.6795436 L257.93318,72.3964697 L257.939884,72.3964697 C257.939884,72.380825 257.93318,72.3674152 257.93318,72.3517704 L257.93318,72.1103942 L257.90636,72.1103942 C257.729798,68.3310685 254.218668,66 250.91092,66 C247.518243,66 243.944534,68.3780027 243.944534,72.3964697 L243.944534,78.1179801 L240.274721,84.0629869 L240.205437,84.0629869 L240.205437,88.0702791 L242.751062,88.0702791 L247.895952,79.2153479 L247.895952,72.3964697 C247.895952,70.6666069 249.27716,70.0721062 250.973499,70.0721062 C252.569264,70.0721062 254.468984,70.6107327 254.69248,72.1103942 L254.654486,72.1103942 L253.40514,86.7091854 L269.188463,89.2391658 L263.098184,110.0154 L251.54118,110.0154 L241.32292,106.987023 L240.205437,107.328972 L240.205437,111.979934 L240.916156,111.979934 L251.049487,113.948938 L267.273098,114.004813 L273.939999,85.7839099 L257.93318,82.6795436 Z M226,112.011224 L235.932184,112.011224 L235.932184,84.0808666 L226,84.0808666 L226,112.011224 Z" id="赞icon"></path>
        </g>
    </g>
</svg>