<?xml version="1.0" encoding="UTF-8" standalone="no"?>
<svg width="60px" height="60px" viewBox="0 0 60 60" version="1.1" xmlns="http://www.w3.org/2000/svg" xmlns:xlink="http://www.w3.org/1999/xlink">
    <!-- Generator: Sketch 3.8.1 (29687) - http://www.bohemiancoding.com/sketch -->
    <title>position2</title>
    <desc>Created with Sketch.</desc>
    <defs></defs>
    <g id="Page-1" stroke="none" stroke-width="1" fill="none" fill-rule="evenodd">
        <g id="iconfont" transform="translate(-460.000000, -60.000000)" fill="#000000">
            <path d="M489.506125,78.4376488 C486.166732,78.4376488 483.44847,81.1602389 483.44847,84.5061247 C483.44847,87.8541748 486.166732,90.5746007 489.506125,90.5746007 C492.845518,90.5746007 495.56378,87.8541748 495.56378,84.5061247 C495.56378,81.1602389 492.845518,78.4376488 489.506125,78.4376488 M489.506125,94.9030429 C483.779596,94.9030429 479.120028,90.2391464 479.120028,84.5061247 C479.120028,78.7731031 483.779596,74.1092066 489.506125,74.1092066 C495.232654,74.1092066 499.892222,78.7731031 499.892222,84.5061247 C499.892222,90.2391464 495.232654,94.9030429 489.506125,94.9030429 M489.506125,69.3284422 C481.137082,69.3284422 474.328442,76.5482838 474.328442,85.4215903 C474.328442,88.9384496 475.397567,92.290828 477.41895,95.119465 C477.949184,95.8574644 478.494568,96.5067307 479.065922,97.0780851 L489.521274,109.476908 L499.983119,97.0586071 C500.667013,96.3487426 501.179933,95.7124616 501.437476,95.3770073 C501.482924,95.2882743 501.534866,95.2017054 501.5933,95.119465 C503.614682,92.290828 504.683807,88.9384496 504.683807,85.4215903 C504.683807,76.5482838 497.875168,69.3284422 489.506125,69.3284422 M489.521274,115 L489.521274,115 C488.882829,115 488.276847,114.716487 487.865645,114.229537 L475.87586,99.9997836 C475.263386,99.3959659 474.568671,98.5713977 473.928061,97.6797386 C471.346146,94.0676536 470,89.843094 470,85.4215903 C470,74.1611479 478.749946,65 489.506125,65 C500.262304,65 509.012249,74.1611479 509.012249,85.4215903 C509.012249,89.7154049 507.741852,93.8209323 505.337402,97.3204779 C505.287625,97.4243605 505.227027,97.5282431 505.155607,97.625633 C505.123144,97.6732459 504.337532,98.7791629 503.192659,99.9608276 L491.174739,114.229537 C490.765701,114.718651 490.15972,115 489.521274,115" id="pin-icon"></path>
        </g>
    </g>
</svg>