<?xml version="1.0" encoding="UTF-8" standalone="no"?>
<svg width="60px" height="60px" viewBox="0 0 60 60" version="1.1" xmlns="http://www.w3.org/2000/svg" xmlns:xlink="http://www.w3.org/1999/xlink">
    <!-- Generator: Sketch 3.8.1 (29687) - http://www.bohemiancoding.com/sketch -->
    <title>search</title>
    <desc>Created with Sketch.</desc>
    <defs></defs>
    <g id="Page-1" stroke="none" stroke-width="1" fill="none" fill-rule="evenodd">
        <g id="iconfont" transform="translate(-220.000000, -140.000000)" fill="#000000">
            <path d="M246.545455,154.454545 C244.908,154.454545 243.343091,154.774091 241.849,155.413182 C240.354909,156.052273 239.069818,156.910727 237.990273,157.990273 C236.910727,159.069818 236.052273,160.354909 235.413182,161.849 C234.774091,163.343091 234.454545,164.908 234.454545,166.545455 C234.454545,168.182909 234.774091,169.747818 235.413182,171.241909 C236.052273,172.736 236.910727,174.021091 237.990273,175.100636 C239.069818,176.180182 240.354909,177.038636 241.849,177.677727 C243.343091,178.316818 244.908,178.636364 246.545455,178.636364 C248.182909,178.636364 249.747818,178.316818 251.241909,177.677727 C252.736,177.038636 254.021091,176.180182 255.100636,175.100636 C256.180182,174.021091 257.038636,172.736 257.677727,171.241909 C258.316818,169.747818 258.636364,168.182909 258.636364,166.545455 C258.636364,164.908 258.316818,163.343091 257.677727,161.849 C257.038636,160.354909 256.180182,159.069818 255.100636,157.990273 C254.021091,156.910727 252.736,156.052273 251.241909,155.413182 C249.747818,154.774091 248.182909,154.454545 246.545455,154.454545 M246.545455,151 C248.651,151 250.663273,151.411091 252.584,152.235 C254.504727,153.058909 256.157727,154.162636 257.543,155.547909 C258.928273,156.933182 260.032,158.586182 260.855909,160.506909 C261.679818,162.427636 262.090909,164.439909 262.090909,166.545455 C262.090909,168.353909 261.795545,170.084636 261.206545,171.741091 C260.617545,173.397545 259.778091,174.898545 258.689909,176.247545 L268.500818,186.044636 C268.834182,186.378 269,186.787364 269,187.272727 C269,187.768455 268.835909,188.179545 268.507727,188.507727 C268.179545,188.835909 267.768455,189 267.272727,189 C266.787364,189 266.378,188.834182 266.044636,188.500818 L256.247545,178.689909 C254.898545,179.778091 253.395818,180.617545 251.741091,181.206545 C250.086364,181.795545 248.353909,182.090909 246.545455,182.090909 C244.439909,182.090909 242.427636,181.679818 240.506909,180.855909 C238.586182,180.032 236.933182,178.928273 235.547909,177.543 C234.162636,176.157727 233.058909,174.504727 232.235,172.584 C231.411091,170.663273 231,168.651 231,166.545455 C231,164.439909 231.411091,162.427636 232.235,160.506909 C233.058909,158.586182 234.162636,156.933182 235.547909,155.547909 C236.933182,154.162636 238.586182,153.058909 240.506909,152.235 C242.427636,151.411091 244.439909,151 246.545455,151" id="搜索icon"></path>
        </g>
    </g>
</svg>