<?xml version="1.0" encoding="UTF-8" standalone="no"?>
<svg width="60px" height="60px" viewBox="0 0 60 60" version="1.1" xmlns="http://www.w3.org/2000/svg" xmlns:xlink="http://www.w3.org/1999/xlink">
    <!-- Generator: Sketch 3.8.1 (29687) - http://www.bohemiancoding.com/sketch -->
    <title>info</title>
    <desc>Created with Sketch.</desc>
    <defs></defs>
    <g id="Page-1" stroke="none" stroke-width="1" fill="none" fill-rule="evenodd">
        <g id="iconfont" transform="translate(-460.000000, -140.000000)" fill="#000000">
            <g id="Page-1" transform="translate(490.000000, 170.500000) scale(-1, 1) translate(-490.000000, -170.500000) translate(471.000000, 148.000000)">
                <path d="M28.35845,24.1259055 L16.95845,24.1259055 C16.43405,24.1259055 15.98565,24.3094038 15.61515,24.6745279 C15.24465,25.0396521 15.05845,25.4815459 15.05845,25.998337 C15.05845,26.5151281 15.24465,26.9570219 15.61515,27.3221461 C15.98565,27.6872702 16.43405,27.8707685 16.95845,27.8707685 L28.35845,27.8707685 C28.88285,27.8707685 29.33125,27.6872702 29.70175,27.3221461 C30.07225,26.9570219 30.25845,26.5151281 30.25845,25.998337 C30.25845,25.4815459 30.07225,25.0396521 29.70175,24.6745279 C29.33125,24.3094038 28.88285,24.1259055 28.35845,24.1259055" id="Fill-1"></path>
                <path d="M16.95845,12.8913164 L20.75845,12.8913164 C21.28285,12.8913164 21.73125,12.7078182 22.10175,12.342694 C22.47225,11.9775699 22.65845,11.535676 22.65845,11.0188849 C22.65845,10.5020938 22.47225,10.0602 22.10175,9.69507586 C21.73125,9.32995171 21.28285,9.14645342 20.75845,9.14645342 L16.95845,9.14645342 C16.43405,9.14645342 15.98565,9.32995171 15.61515,9.69507586 C15.24465,10.0602 15.05845,10.5020938 15.05845,11.0188849 C15.05845,11.535676 15.24465,11.9775699 15.61515,12.342694 C15.98565,12.7078182 16.43405,12.8913164 16.95845,12.8913164" id="Fill-3"></path>
                <path d="M28.35845,16.6361795 L16.95845,16.6361795 C16.43405,16.6361795 15.98565,16.8196777 15.61515,17.1848019 C15.24465,17.549926 15.05845,17.9918199 15.05845,18.508611 C15.05845,19.0254021 15.24465,19.4672959 15.61515,19.83242 C15.98565,20.1975442 16.43405,20.3810425 16.95845,20.3810425 L28.35845,20.3810425 C28.88285,20.3810425 29.33125,20.1975442 29.70175,19.83242 C30.07225,19.4672959 30.25845,19.0254021 30.25845,18.508611 C30.25845,17.9918199 30.07225,17.549926 29.70175,17.1848019 C29.33125,16.8196777 28.88285,16.6361795 28.35845,16.6361795" id="Fill-5"></path>
                <path d="M4.3567,40.6448707 C3.9862,40.2797466 3.8,39.8378527 3.8,39.3210616 L3.8,7.81178425 C2.6828,8.20312243 1.7708,8.88094264 1.0621,9.84524486 C0.3534,10.8095471 0,11.8974298 0,13.1070205 L0,39.3210616 C0,40.8714349 0.5567,42.195244 1.6701,43.2924889 C2.7835,44.3897337 4.1268,44.9383562 5.7,44.9383562 L24.7,44.9383562 C25.9255,44.9364837 27.0294,44.5882115 28.0098,43.891667 C28.9902,43.1951224 29.678,42.2963553 30.0732,41.1934932 L5.7,41.1934932 C5.1756,41.1934932 4.7272,41.0099949 4.3567,40.6448707" id="Fill-7"></path>
                <path d="M34.2,31.8313356 C34.2,32.3481267 34.0138,32.7900205 33.6433,33.1551447 C33.2728,33.5202688 32.8244,33.7037671 32.3,33.7037671 L13.3,33.7037671 C12.7756,33.7037671 12.3272,33.5202688 11.9567,33.1551447 C11.5862,32.7900205 11.4,32.3481267 11.4,31.8313356 L11.4,5.61729452 C11.4,5.10050342 11.5862,4.65860959 11.9567,4.29348545 C12.3272,3.9283613 12.7756,3.74486301 13.3,3.74486301 L32.3,3.74486301 C32.8244,3.74486301 33.2728,3.9283613 33.6433,4.29348545 C34.0138,4.65860959 34.2,5.10050342 34.2,5.61729452 L34.2,31.8313356 Z M36.3299,1.64586729 C35.2165,0.548622432 33.8732,0 32.3,0 L13.3,0 C11.7268,0 10.3835,0.548622432 9.2701,1.64586729 C8.1567,2.74311216 7.6,4.06692123 7.6,5.61729452 L7.6,31.8313356 C7.6,33.3817089 8.1567,34.705518 9.2701,35.8027628 C10.3835,36.9000077 11.7268,37.4486301 13.3,37.4486301 L32.3,37.4486301 C33.8732,37.4486301 35.2165,36.9000077 36.3299,35.8027628 C37.4433,34.705518 38,33.3817089 38,31.8313356 L38,5.61729452 C38,4.06692123 37.4433,2.74311216 36.3299,1.64586729 L36.3299,1.64586729 Z" id="Fill-9"></path>
            </g>
        </g>
    </g>
</svg>